<?xml version="1.0" encoding="UTF-8"?>
<svg xmlns="http://www.w3.org/2000/svg" xmlns:xlink="http://www.w3.org/1999/xlink" width="30pt" height="30pt" viewBox="0 0 30 30" version="1.1">
<g id="surface1">
<path style=" stroke:none;fill-rule:nonzero;fill:rgb(0%,0%,0%);fill-opacity:1;" d="M 23.308594 18.515625 L 11.289062 18.515625 C 10.878906 18.515625 10.519531 18.230469 10.429688 17.832031 L 8.40625 9.015625 C 8.347656 8.753906 8.40625 8.480469 8.574219 8.269531 C 8.742188 8.0625 8.996094 7.9375 9.261719 7.9375 L 25.332031 7.9375 C 25.601562 7.9375 25.855469 8.058594 26.023438 8.269531 C 26.1875 8.480469 26.25 8.753906 26.191406 9.015625 L 24.164062 17.832031 C 24.074219 18.230469 23.71875 18.515625 23.308594 18.515625 Z M 11.988281 16.757812 L 22.609375 16.757812 L 24.230469 9.699219 L 10.367188 9.699219 Z M 11.988281 16.757812 "/>
<path style=" stroke:none;fill-rule:nonzero;fill:rgb(0%,0%,0%);fill-opacity:1;" d="M 13.007812 26.367188 C 11.148438 26.367188 9.640625 24.859375 9.640625 23 C 9.640625 21.140625 11.148438 19.632812 13.007812 19.632812 C 14.867188 19.632812 16.375 21.140625 16.375 23 C 16.375 24.859375 14.867188 26.367188 13.007812 26.367188 Z M 13.007812 21.390625 C 12.117188 21.390625 11.398438 22.109375 11.398438 23 C 11.398438 23.890625 12.117188 24.609375 13.007812 24.609375 C 13.898438 24.609375 14.617188 23.886719 14.617188 23 C 14.617188 22.109375 13.898438 21.390625 13.007812 21.390625 Z M 13.007812 21.390625 "/>
<path style=" stroke:none;fill-rule:nonzero;fill:rgb(0%,0%,0%);fill-opacity:1;" d="M 21.585938 26.367188 C 19.726562 26.367188 18.21875 24.859375 18.21875 23 C 18.21875 21.140625 19.726562 19.632812 21.585938 19.632812 C 23.445312 19.632812 24.953125 21.140625 24.953125 23 C 24.953125 24.859375 23.445312 26.367188 21.585938 26.367188 Z M 21.585938 21.390625 C 20.699219 21.390625 19.976562 22.109375 19.976562 23 C 19.976562 23.890625 20.699219 24.609375 21.585938 24.609375 C 22.476562 24.609375 23.199219 23.886719 23.195312 23 C 23.195312 22.109375 22.476562 21.390625 21.585938 21.390625 Z M 21.585938 21.390625 "/>
<path style=" stroke:none;fill-rule:nonzero;fill:rgb(0%,0%,0%);fill-opacity:1;" d="M 9.261719 9.695312 C 8.882812 9.695312 8.546875 9.453125 8.429688 9.09375 L 6.921875 4.570312 L 4.140625 4.570312 C 3.65625 4.570312 3.265625 4.175781 3.265625 3.691406 C 3.265625 3.207031 3.65625 2.8125 4.140625 2.8125 L 7.558594 2.8125 C 7.9375 2.8125 8.273438 3.054688 8.390625 3.414062 L 10.097656 8.539062 C 10.1875 8.808594 10.144531 9.101562 9.976562 9.332031 C 9.8125 9.5625 9.546875 9.695312 9.265625 9.695312 Z M 9.261719 9.695312 "/>
</g>
</svg>
