<?xml version="1.0" encoding="UTF-8"?>
<svg xmlns="http://www.w3.org/2000/svg" xmlns:xlink="http://www.w3.org/1999/xlink" width="30pt" height="30pt" viewBox="0 0 30 30" version="1.1">
<g id="surface1">
<path style=" stroke:none;fill-rule:nonzero;fill:rgb(0%,0%,0%);fill-opacity:1;" d="M 28.125 14.0625 C 27.929688 14.0625 27.738281 14 27.582031 13.882812 L 15 4.902344 L 2.417969 13.882812 C 2 14.132812 1.460938 14.019531 1.179688 13.625 C 0.894531 13.226562 0.960938 12.683594 1.332031 12.367188 L 14.457031 2.992188 C 14.78125 2.757812 15.21875 2.757812 15.542969 2.992188 L 28.667969 12.367188 C 28.996094 12.601562 29.136719 13.023438 29.011719 13.410156 C 28.886719 13.796875 28.53125 14.058594 28.125 14.0625 Z M 28.125 14.0625 "/>
<path style=" stroke:none;fill-rule:nonzero;fill:rgb(0%,0%,0%);fill-opacity:1;" d="M 4.6875 8.4375 C 4.167969 8.4375 3.75 8.019531 3.75 7.5 L 3.75 3.75 C 3.75 3.230469 4.167969 2.8125 4.6875 2.8125 L 8.4375 2.8125 C 8.957031 2.8125 9.375 3.230469 9.375 3.75 C 9.375 4.269531 8.957031 4.6875 8.4375 4.6875 L 5.625 4.6875 L 5.625 7.5 C 5.625 8.019531 5.207031 8.4375 4.6875 8.4375 Z M 4.6875 8.4375 "/>
<path style=" stroke:none;fill-rule:nonzero;fill:rgb(0%,0%,0%);fill-opacity:1;" d="M 23.4375 27.1875 L 18.75 27.1875 C 18.230469 27.1875 17.8125 26.769531 17.8125 26.25 L 17.8125 19.6875 L 12.1875 19.6875 L 12.1875 26.25 C 12.1875 26.769531 11.769531 27.1875 11.25 27.1875 L 6.5625 27.1875 C 5.007812 27.1875 3.75 25.929688 3.75 24.375 L 3.75 15 C 3.75 14.480469 4.167969 14.0625 4.6875 14.0625 C 5.207031 14.0625 5.625 14.480469 5.625 15 L 5.625 24.375 C 5.625 24.894531 6.042969 25.3125 6.5625 25.3125 L 10.3125 25.3125 L 10.3125 18.75 C 10.3125 18.230469 10.730469 17.8125 11.25 17.8125 L 18.75 17.8125 C 19.269531 17.8125 19.6875 18.230469 19.6875 18.75 L 19.6875 25.3125 L 23.4375 25.3125 C 23.957031 25.3125 24.375 24.894531 24.375 24.375 L 24.375 15 C 24.375 14.480469 24.792969 14.0625 25.3125 14.0625 C 25.832031 14.0625 26.25 14.480469 26.25 15 L 26.25 24.375 C 26.25 25.929688 24.992188 27.1875 23.4375 27.1875 Z M 23.4375 27.1875 "/>
</g>
</svg>
