<?xml version="1.0" encoding="UTF-8"?>
<svg xmlns="http://www.w3.org/2000/svg" xmlns:xlink="http://www.w3.org/1999/xlink" width="30pt" height="30pt" viewBox="0 0 30 30" version="1.1">
<g id="surface1">
<path style=" stroke:none;fill-rule:nonzero;fill:rgb(0%,0%,0%);fill-opacity:1;" d="M 21 17.8125 C 19.078125 17.8125 18.152344 18.75 15 18.75 C 11.847656 18.75 10.929688 17.8125 9 17.8125 C 4.03125 17.8125 0 21.339844 0 25.6875 L 0 27.1875 C 0 28.742188 1.441406 30 3.214844 30 L 26.785156 30 C 28.558594 30 30 28.742188 30 27.1875 L 30 25.6875 C 30 21.339844 25.96875 17.8125 21 17.8125 Z M 26.785156 27.1875 L 3.214844 27.1875 L 3.214844 25.6875 C 3.214844 22.898438 5.8125 20.625 9 20.625 C 9.976562 20.625 11.566406 21.5625 15 21.5625 C 18.460938 21.5625 20.015625 20.625 21 20.625 C 24.1875 20.625 26.785156 22.898438 26.785156 25.6875 Z M 15 16.875 C 20.324219 16.875 24.644531 13.09375 24.644531 8.4375 C 24.644531 3.78125 20.324219 0 15 0 C 9.675781 0 5.355469 3.78125 5.355469 8.4375 C 5.355469 13.09375 9.675781 16.875 15 16.875 Z M 15 2.8125 C 18.542969 2.8125 21.429688 5.335938 21.429688 8.4375 C 21.429688 11.539062 18.542969 14.0625 15 14.0625 C 11.457031 14.0625 8.570312 11.539062 8.570312 8.4375 C 8.570312 5.335938 11.457031 2.8125 15 2.8125 Z M 15 2.8125 "/>
</g>
</svg>
